<?xml version="1.0" encoding="UTF-8" standalone="no"?>
<svg
   xmlns:dc="http://purl.org/dc/elements/1.1/"
   xmlns:cc="http://creativecommons.org/ns#"
   xmlns:rdf="http://www.w3.org/1999/02/22-rdf-syntax-ns#"
   xmlns:svg="http://www.w3.org/2000/svg"
   xmlns="http://www.w3.org/2000/svg"
   id="svg52"
   version="1.1"
   style="overflow:visible"
   viewBox="-240 -150 480 332"
   height="1328px"
   width="1920px">
  <metadata
     id="metadata58">
    <rdf:RDF>
      <cc:Work
         rdf:about="">
        <dc:format>image/svg+xml</dc:format>
        <dc:type
           rdf:resource="http://purl.org/dc/dcmitype/StillImage" />
      </cc:Work>
    </rdf:RDF>
  </metadata>
  <defs
     id="defs56" />
  <rect
     id="rect2"
     fill-opacity="0"
     fill="rgb(0,0,0)"
     height="332"
     width="480"
     y="-150"
     x="-240" />
  <svg
     id="svg26"
     version="1.1"
     y="-258"
     x="-333"
     viewBox="-250 -250 500 500"
     height="500"
     width="500"
     style="overflow:visible">
    <g
       style="fill:#ffffff;stroke-linejoin:round"
       id="g24"
       transform="rotate(-7)">
      <path
         style="fill:#64d24d;fill-opacity:1;stroke:none;stroke-linecap:butt;stroke-linejoin:round"
         id="path4"
         d="m 65.684479,-82.77013 5.44102,36.17619 -20.32156,66.164599 27.94215,21.20662 -8.46732,51.74412 c -36.44462,30.988871 -90.9469,26.972971 -123.62288,17.813541 l -25.40197,-66.164611 22.86177,-60.22675 -16.93464,-24.59967 1.81016,-41.14183 z" />
      <path
         style="fill:#8fea7b;fill-opacity:1;stroke:none;stroke-linecap:butt;stroke-linejoin:round"
         id="path6"
         d="M -47.41699,-4.18073 48.26373,42.4738 c 0,0 -56.83986,6.12405 -76.20588,0.84826 -13.87164,-3.77898 -19.47484,-47.50279 -19.47484,-47.50279 z" />
      <path
         style="fill:#519e40;fill-opacity:1;stroke:none;stroke-linecap:butt;stroke-linejoin:round"
         id="path8"
         d="m 58.42452,-39.80783 c 0,0 -76.98481,17.90184 -77.89935,27.14446 -0.66987,6.76997 46.90457,22.69479 46.90457,22.69479 0,0 -15.57548,-13.3639 -15.57548,-19.30174 0,-5.93784 46.57026,-30.53751 46.57026,-30.53751 z" />
      <path
         style="fill:#519e40;fill-opacity:1;stroke:none;stroke-linecap:butt;stroke-linejoin:round"
         id="path10"
         d="m -66.36684,50.69534 c 17.82597,22.29135 45.41298,47.91659 72.58653,56.70881 0,0 -46.49016,-1.17203 -50.00622,-4.29741 -3.51606,-3.12539 -22.58031,-52.4114 -22.58031,-52.4114 z" />
      <path
         style="fill:none;stroke:#525252;stroke-width:6;stroke-linecap:butt;stroke-linejoin:round;stroke-opacity:1"
         id="path12"
         d="m 65.684479,-82.77013 5.44102,36.17619 -20.32156,66.164599 27.94215,21.20662 -8.46732,51.74412 c -36.44462,30.988871 -90.9469,26.972971 -123.62288,17.813541 l -25.40197,-66.164611 22.86177,-60.22675 -16.93464,-24.59967 1.81016,-41.14183 z" />
      <path
         style="fill:#ffffff;fill-opacity:1;stroke:#525252;stroke-width:6;stroke-linecap:butt;stroke-linejoin:round;stroke-opacity:1"
         id="path14"
         d="m 68.41508,-77.92316 c -2.091331,14.6392 -32.419691,26.77665 -70.5319,26.77665 -38.112209,0 -65.05499,-15.28721 -70.09669,-25.68665 -1.84859,-3.81304 -1.52324,-8.81184 1.08802,-13.38983 H 66.89185 c 1.54309,3.22794 2.2177,7.43863 1.52323,12.29983 z" />
      <path
         style="fill:#e8e8e8;fill-opacity:1;stroke:#525252;stroke-width:6;stroke-linecap:butt;stroke-linejoin:round;stroke-opacity:1"
         id="path16"
         d="m -2.11682,-116.99987 c 38.11222,0 69.00837,11.98828 69.00867,26.77666 -0.0225,2.64617 -1.05577,5.27642 -3.0661,7.80502 l -131.88514,0.0828 c -2.0313,-2.55513 -3.06479,-5.21391 -3.0661,-7.88785 3e-4,-14.78838 30.89645,-26.77666 69.00867,-26.77666 z" />
      <path
         style="fill:#ffffff;fill-opacity:1;stroke:none;stroke-linecap:butt;stroke-linejoin:round"
         id="path18"
         d="m -2.11719,-101.30664 c 30.28039,6.5e-4 57.02319,7.6606 65.94336,18.88867 a 69.008662,26.776872 0 0 1 -65.94336,18.97266 69.008662,26.776872 0 0 1 -65.9414,-18.89063 c 8.84349,-11.26086 35.6027,-18.9589 65.9414,-18.9707 z" />
      <path
         style="fill:#525252;fill-opacity:1;stroke:none;stroke-linecap:butt;stroke-linejoin:round"
         id="path20"
         d="m 2.96488,-89.96193 c 11.27272,-4.20699 34.92882,-8.18629 39.11289,5.26803 4.93552,15.87072 -25.48035,13.74946 -38.13892,10.95725 -11.03758,-2.43464 -6.04212,-14.33384 -0.97397,-16.22528 z" />
      <path
         style="fill:none;stroke:#525252;stroke-width:6;stroke-linecap:butt;stroke-linejoin:miter;stroke-opacity:1"
         id="path22"
         d="m -2.11719,-101.30664 c 30.28039,6.5e-4 57.02319,7.6606 65.94336,18.88867 a 69.008662,26.776872 0 0 1 -65.94336,18.97266 69.008662,26.776872 0 0 1 -65.9414,-18.89063 c 8.84349,-11.26086 35.6027,-18.9589 65.9414,-18.9707 z" />
    </g>
  </svg>
  <svg
     id="svg50"
     version="1.1"
     y="-212"
     x="-179"
     viewBox="-250 -250 500 500"
     height="500"
     width="500"
     style="overflow:visible">
    <g
       style="fill:#ffffff;stroke-linejoin:round"
       id="g48"
       transform="rotate(17)">
      <path
         style="fill:#ff3535;fill-opacity:1;stroke:none;stroke-linecap:butt;stroke-linejoin:round"
         id="path28"
         d="m -65.68448,-82.77013 -5.44102,36.17619 20.32156,66.164599 -27.94215,21.20662 8.46732,51.74412 c 36.44462,30.988871 90.9469,26.972971 123.62288,17.813541 l 25.40197,-66.164611 -22.86177,-60.22675 16.93464,-24.59967 -1.81016,-41.14183 z" />
      <path
         style="fill:#ffa0a0;fill-opacity:1;stroke:none;stroke-linecap:butt;stroke-linejoin:round"
         id="path30"
         d="M 47.41699,-4.18073 -48.26373,42.4738 c 0,0 56.83986,6.12405 76.20588,0.84826 13.87164,-3.77898 19.47484,-47.50279 19.47484,-47.50279 z" />
      <path
         style="fill:#d02020;fill-opacity:1;stroke:none;stroke-linecap:butt;stroke-linejoin:round"
         id="path32"
         d="m -58.42452,-39.80783 c 0,0 76.98481,17.90184 77.89935,27.14446 0.66987,6.76997 -46.90457,22.69479 -46.90457,22.69479 0,0 15.57548,-13.3639 15.57548,-19.30174 0,-5.93784 -46.57026,-30.53751 -46.57026,-30.53751 z" />
      <path
         style="fill:#d02020;fill-opacity:1;stroke:none;stroke-linecap:butt;stroke-linejoin:round"
         id="path34"
         d="m 66.36684,50.69534 c -17.82597,22.29135 -45.41298,47.91659 -72.58653,56.70881 0,0 46.49016,-1.17203 50.00622,-4.29741 3.51606,-3.12539 22.58031,-52.4114 22.58031,-52.4114 z" />
      <path
         style="fill:none;stroke:#525252;stroke-width:6;stroke-linecap:butt;stroke-linejoin:round;stroke-opacity:1"
         id="path36"
         d="m -65.68448,-82.77013 -5.44102,36.17619 20.32156,66.164599 -27.94215,21.20662 8.46732,51.74412 c 36.44462,30.988871 90.9469,26.972971 123.62288,17.813541 l 25.40197,-66.164611 -22.86177,-60.22675 16.93464,-24.59967 -1.81016,-41.14183 z" />
      <path
         style="fill:#ffffff;fill-opacity:1;stroke:#525252;stroke-width:6;stroke-linecap:butt;stroke-linejoin:round;stroke-opacity:1"
         id="path38"
         d="m -68.41508,-77.92316 c 2.09133,14.6392 32.41969,26.77665 70.5319,26.77665 38.11221,0 65.05499,-15.28721 70.09669,-25.68665 1.84859,-3.81304 1.52324,-8.81184 -1.08802,-13.38983 H -66.89185 c -1.54309,3.22794 -2.2177,7.43863 -1.52323,12.29983 z" />
      <path
         style="fill:#e8e8e8;fill-opacity:1;stroke:#525252;stroke-width:6;stroke-linecap:butt;stroke-linejoin:round;stroke-opacity:1"
         id="path40"
         d="m 2.11682,-116.99987 c -38.11222,0 -69.00837,11.98828 -69.00867,26.77666 0.0225,2.64617 1.05577,5.27642 3.0661,7.80502 l 131.88514,0.0828 c 2.031299,-2.55513 3.06479,-5.21391 3.0661,-7.88785 -3e-4,-14.78838 -30.89645,-26.77666 -69.00867,-26.77666 z" />
      <path
         style="fill:#ffffff;fill-opacity:1;stroke:none;stroke-linecap:butt;stroke-linejoin:round"
         id="path42"
         d="m 2.11719,-101.30664 c -30.28039,6.5e-4 -57.02319,7.6606 -65.94336,18.88867 a 69.008662,26.776872 0 0 0 65.94336,18.97266 69.008662,26.776872 0 0 0 65.9414,-18.89063 c -8.84349,-11.26086 -35.6027,-18.9589 -65.9414,-18.9707 z" />
      <path
         style="fill:#525252;fill-opacity:1;stroke:none;stroke-linecap:butt;stroke-linejoin:round"
         id="path44"
         d="m -2.96488,-89.96193 c -11.27272,-4.20699 -34.92882,-8.18629 -39.11289,5.26803 -4.93552,15.87072 25.48035,13.74946 38.13892,10.95725 11.03758,-2.43464 6.04212,-14.33384 0.97397,-16.22528 z" />
      <path
         style="fill:none;stroke:#525252;stroke-width:6;stroke-linecap:butt;stroke-linejoin:miter;stroke-opacity:1"
         id="path46"
         d="m 2.11719,-101.30664 c -30.28039,6.5e-4 -57.02319,7.6606 -65.94336,18.88867 a 69.008662,26.776872 0 0 0 65.94336,18.97266 69.008662,26.776872 0 0 0 65.9414,-18.89063 c -8.84349,-11.26086 -35.6027,-18.9589 -65.9414,-18.9707 z" />
    </g>
  </svg>
</svg>
